{
  "accessors": [
    {
      "bufferView": 1,
      "componentType": 5126,
      "count": 243,
      "max": [
        29.0,
        2.0,
        28.97871971130371
      ],
      "min": [
        -29.0,
        -32.0,
        -28.97871971130371
      ],
      "type": "VEC3"
    },
    {
      "bufferView": 0,
      "componentType": 5125,
      "count": 250,
      "type": "SCALAR"
    },
    {
      "bufferView": 1,
      "byteOffset": 2916,
      "componentType": 5126,
      "count": 487,
      "max": [
        29.0,
        2.0,
        28.97871971130371
      ],
      "min": [
        -29.0,
        -32.0,
        -28.97871971130371
      ],
      "type": "VEC3"
    },
    {
      "bufferView": 1,
      "byteOffset": 8760,
      "componentType": 5126,
      "count": 487,
      "max": [
        1.0,
        1.0,
        0.9992662668228149
      ],
      "min": [
        -1.0,
        -1.0,
        -0.9992662668228149
      ],
      "type": "VEC3"
    },
    {
      "bufferView": 0,
      "byteOffset": 1000,
      "componentType": 5125,
      "count": 1452,
      "type": "SCALAR"
    }
  ],
  "asset": {
    "extras": {
      "author": "accreative (https://sketchfab.com/accreative)",
      "license": "CC-BY-4.0 (http://creativecommons.org/licenses/by/4.0/)",
      "source": "https://sketchfab.com/3d-models/tappo-9825d2aaf243470990409ff94b383542",
      "title": "Tappo"
    },
    "generator": "Sketchfab-15.10.0",
    "version": "2.0"
  },
  "bufferViews": [
    {
      "buffer": 0,
      "byteLength": 6808,
      "name": "floatBufferViews",
      "target": 34963
    },
    {
      "buffer": 0,
      "byteLength": 14604,
      "byteOffset": 6808,
      "byteStride": 12,
      "name": "floatBufferViews",
      "target": 34962
    }
  ],
  "buffers": [
    {
      "byteLength": 21412,
      "uri": "scene.bin"
    }
  ],
  "materials": [
    {
      "doubleSided": true,
      "name": "ff425c42",
      "pbrMetallicRoughness": {
        "metallicFactor": 0.0,
        "roughnessFactor": 0.6
      }
    },
    {
      "doubleSided": true,
      "name": "ff8faf8f",
      "pbrMetallicRoughness": {
        "metallicFactor": 0.0,
        "roughnessFactor": 0.6
      }
    }
  ],
  "meshes": [
    {
      "name": "Object_0",
      "primitives": [
        {
          "attributes": {
            "POSITION": 0
          },
          "indices": 1,
          "material": 0,
          "mode": 1
        }
      ]
    },
    {
      "name": "Object_1",
      "primitives": [
        {
          "attributes": {
            "NORMAL": 3,
            "POSITION": 2
          },
          "indices": 4,
          "material": 1,
          "mode": 4
        }
      ]
    }
  ],
  "nodes": [
    {
      "children": [
        1
      ],
      "matrix": [
        1.0,
        0.0,
        0.0,
        0.0,
        0.0,
        2.220446049250313e-16,
        -1.0,
        0.0,
        0.0,
        1.0,
        2.220446049250313e-16,
        0.0,
        0.0,
        0.0,
        0.0,
        1.0
      ],
      "name": "Sketchfab_model"
    },
    {
      "children": [
        2,
        3
      ],
      "name": "44abf51d9fff4dceba91c83953c750e8.obj.cleaner.materialmerger.gles"
    },
    {
      "mesh": 0,
      "name": "Object_2"
    },
    {
      "mesh": 1,
      "name": "Object_3"
    }
  ],
  "scene": 0,
  "scenes": [
    {
      "name": "Sketchfab_Scene",
      "nodes": [
        0
      ]
    }
  ]
}
